# xmcd
#
# Track frame offsets:
#       150
#       8615
#       28714
#       49478
#       88689
#       121170
#       170279
#       244928
#
# Disc length: 3541 seconds
#
# Revision: 0
# Processed by: cddbd v1.5.2PL0 Copyright (c) Steve Scherf et al.
# Submitted via: WaveLab 6.10
#
DISCID=5d0dd308
DTITLE=Romansk Hus - Tid til Portugisisk - CD 1
DYEAR=2012
DGENRE=Language Course
TTITLE0=CD 1 Lektion 1
TTITLE1=CD 1 Lektion 2
TTITLE2=CD 1 Lektion 3
TTITLE3=CD 1 Lektion 4
TTITLE4=CD 1 Lektion 5
TTITLE5=CD 1 Lektion 6
TTITLE6=CD 1 Lektion 7
TTITLE7=CD 1 Lektion 8
EXTD=
EXTT0=
EXTT1=
EXTT2=
EXTT3=
EXTT4=
EXTT5=
EXTT6=
EXTT7=
PLAYORDER=
